<svg xmlns="http://www.w3.org/2000/svg" xmlns:xlink="http://www.w3.org/1999/xlink" width="500" zoomAndPan="magnify" viewBox="0 0 375 374.999991" height="500" preserveAspectRatio="xMidYMid meet" version="1.0"><defs><g/><clipPath id="294e98d108"><path d="M 88.5625 28.011719 L 286.453125 28.011719 L 286.453125 217.273438 L 88.5625 217.273438 Z M 88.5625 28.011719 " clip-rule="nonzero"/></clipPath><clipPath id="0934d330b0"><path d="M 232.128906 120.859375 C 230.21875 122.769531 227.117188 122.769531 225.210938 120.859375 C 223.304688 118.949219 223.304688 115.839844 225.210938 113.933594 C 227.117188 112.019531 230.21875 112.019531 232.128906 113.933594 C 234.035156 115.839844 234.035156 118.949219 232.128906 120.859375 Z M 184.722656 78.675781 C 186.628906 76.765625 189.734375 76.765625 191.640625 78.675781 C 193.546875 80.585938 193.546875 83.695312 191.640625 85.605469 C 189.734375 87.515625 186.628906 87.515625 184.722656 85.605469 C 182.816406 83.695312 182.816406 80.585938 184.722656 78.675781 Z M 127.109375 124.273438 C 125.199219 126.183594 122.097656 126.183594 120.1875 124.273438 C 118.28125 122.363281 118.28125 119.257812 120.1875 117.347656 C 122.097656 115.4375 125.199219 115.4375 127.109375 117.347656 C 129.015625 119.257812 129.015625 122.363281 127.109375 124.273438 Z M 145.777344 142.683594 C 142.355469 141.503906 138.410156 142.28125 135.679688 145.015625 C 134.949219 145.746094 134.359375 146.566406 133.910156 147.4375 L 111.808594 147.4375 C 107.046875 128.226562 109.808594 107.84375 120.097656 89.992188 C 134.132812 65.652344 159.238281 51.097656 187.289062 51.023438 L 126.835938 111.558594 C 123.417969 110.378906 119.46875 111.15625 116.738281 113.890625 C 112.921875 117.710938 112.921875 123.910156 116.738281 127.730469 C 120.554688 131.550781 126.742188 131.550781 130.558594 127.730469 C 133.289062 124.992188 134.0625 121.042969 132.886719 117.617188 L 150.023438 100.457031 L 168.855469 108.152344 L 185.449219 91.535156 C 188.761719 92.496094 192.480469 91.671875 195.089844 89.058594 C 198.90625 85.238281 198.90625 79.042969 195.089844 75.21875 C 191.277344 71.398438 185.089844 71.398438 181.273438 75.21875 C 178.425781 78.074219 177.703125 82.246094 179.105469 85.769531 L 166.824219 98.070312 L 156.585938 93.886719 L 198.617188 51.792969 C 208.707031 53.207031 218.242188 56.539062 226.804688 61.546875 Z M 139.128906 148.472656 C 141.039062 146.558594 144.140625 146.5625 146.050781 148.472656 C 147.957031 150.378906 147.957031 153.488281 146.050781 155.398438 C 144.140625 157.308594 141.039062 157.308594 139.128906 155.398438 C 137.222656 153.488281 137.222656 150.378906 139.128906 148.472656 Z M 190.042969 127.507812 C 186.621094 126.328125 182.675781 127.105469 179.945312 129.839844 C 177.214844 132.574219 176.4375 136.527344 177.617188 139.953125 L 159.554688 158.039062 L 167.992188 178.738281 L 140.753906 203.816406 C 140.453125 203.261719 140.148438 202.710938 139.832031 202.164062 L 120.097656 167.9375 C 117.867188 164.066406 115.992188 160.078125 114.46875 156.003906 L 133.703125 156.003906 C 134.175781 157.035156 134.832031 158.003906 135.679688 158.855469 C 139.496094 162.675781 145.683594 162.675781 149.5 158.855469 C 152.230469 156.117188 153.003906 152.167969 151.828125 148.742188 L 197.453125 103.050781 L 202.382812 115.148438 Z M 190.3125 140.222656 C 188.40625 142.132812 185.300781 142.132812 183.394531 140.222656 C 181.484375 138.3125 181.484375 135.207031 183.394531 133.296875 C 185.300781 131.382812 188.40625 131.382812 190.3125 133.296875 C 192.21875 135.207031 192.21875 138.3125 190.3125 140.222656 Z M 241.242188 133.066406 C 243.148438 131.15625 246.253906 131.15625 248.160156 133.066406 C 250.070312 134.980469 250.070312 138.085938 248.160156 139.996094 C 246.253906 141.90625 243.148438 141.90625 241.242188 139.996094 C 239.335938 138.085938 239.335938 134.980469 241.242188 133.066406 Z M 187.507812 28.011719 C 132.859375 28.011719 88.5625 72.371094 88.5625 127.09375 C 88.5625 167.152344 112.300781 201.652344 146.457031 217.273438 C 146.074219 216.058594 145.660156 214.855469 145.21875 213.660156 L 204.699219 154.09375 L 225.375 162.542969 L 241.96875 145.925781 C 245.277344 146.890625 249 146.066406 251.609375 143.449219 C 255.425781 139.628906 255.425781 133.433594 251.609375 129.613281 C 247.796875 125.792969 241.609375 125.792969 237.792969 129.613281 C 234.945312 132.464844 234.222656 136.636719 235.628906 140.160156 L 223.34375 152.460938 L 202.671875 144.011719 L 174.554688 172.167969 L 169.625 160.070312 L 183.664062 146.007812 C 187.085938 147.191406 191.03125 146.414062 193.761719 143.675781 C 196.492188 140.945312 197.269531 136.992188 196.089844 133.566406 L 212.453125 117.183594 L 204.015625 96.480469 L 234.078125 66.375 C 242.371094 72.597656 249.476562 80.558594 254.914062 89.992188 C 255.832031 91.585938 256.691406 93.199219 257.488281 94.832031 L 248 91.386719 L 231.402344 108 C 228.089844 107.039062 224.371094 107.863281 221.761719 110.476562 C 217.945312 114.300781 217.945312 120.492188 221.761719 124.3125 C 225.574219 128.136719 231.761719 128.136719 235.578125 124.316406 C 238.425781 121.464844 239.148438 117.289062 237.742188 113.765625 L 250.027344 101.46875 L 261.875 105.777344 C 268.371094 126.332031 266.054688 148.617188 254.914062 167.9375 L 235.183594 202.164062 C 232.417969 206.953125 230.203125 212.027344 228.558594 217.273438 C 262.714844 201.652344 286.453125 167.152344 286.453125 127.09375 C 286.453125 72.371094 242.15625 28.011719 187.507812 28.011719 Z M 187.507812 28.011719 " clip-rule="nonzero"/></clipPath><clipPath id="bcf14f3e8f"><path d="M 232.128906 120.859375 C 230.21875 122.769531 227.117188 122.769531 225.210938 120.859375 C 223.304688 118.949219 223.304688 115.839844 225.210938 113.933594 C 227.117188 112.023438 230.21875 112.023438 232.128906 113.933594 C 234.035156 115.839844 234.035156 118.949219 232.128906 120.859375 Z M 184.722656 78.675781 C 186.628906 76.765625 189.734375 76.765625 191.640625 78.675781 C 193.546875 80.585938 193.546875 83.695312 191.640625 85.605469 C 189.734375 87.515625 186.628906 87.515625 184.722656 85.605469 C 182.816406 83.695312 182.816406 80.585938 184.722656 78.675781 Z M 127.109375 124.277344 C 125.199219 126.183594 122.097656 126.183594 120.1875 124.277344 C 118.28125 122.363281 118.28125 119.257812 120.1875 117.347656 C 122.097656 115.4375 125.199219 115.4375 127.109375 117.347656 C 129.015625 119.257812 129.015625 122.363281 127.109375 124.277344 Z M 145.777344 142.683594 C 142.355469 141.503906 138.410156 142.28125 135.679688 145.015625 C 134.949219 145.746094 134.359375 146.566406 133.910156 147.4375 L 111.808594 147.4375 C 107.046875 128.226562 109.808594 107.84375 120.097656 89.996094 C 134.132812 65.65625 159.238281 51.097656 187.289062 51.023438 L 126.835938 111.5625 C 123.414062 110.378906 119.46875 111.15625 116.738281 113.890625 C 112.921875 117.714844 112.921875 123.90625 116.738281 127.730469 C 120.554688 131.550781 126.742188 131.550781 130.558594 127.730469 C 133.289062 124.992188 134.0625 121.042969 132.886719 117.617188 L 150.023438 100.457031 L 168.855469 108.152344 L 185.445312 91.535156 C 188.757812 92.5 192.480469 91.671875 195.089844 89.058594 C 198.90625 85.238281 198.90625 79.042969 195.089844 75.222656 C 191.277344 71.402344 185.089844 71.402344 181.273438 75.222656 C 178.425781 78.074219 177.703125 82.246094 179.105469 85.769531 L 166.824219 98.070312 L 156.585938 93.886719 L 198.617188 51.796875 C 208.707031 53.207031 218.242188 56.539062 226.804688 61.546875 Z M 139.128906 148.472656 C 141.039062 146.558594 144.140625 146.5625 146.046875 148.472656 C 147.957031 150.378906 147.957031 153.488281 146.046875 155.398438 C 144.140625 157.308594 141.039062 157.308594 139.128906 155.398438 C 137.222656 153.488281 137.222656 150.378906 139.128906 148.472656 Z M 190.042969 127.507812 C 186.621094 126.332031 182.675781 127.105469 179.945312 129.839844 C 177.210938 132.578125 176.4375 136.527344 177.617188 139.953125 L 159.554688 158.039062 L 167.992188 178.738281 L 140.753906 203.816406 C 140.453125 203.261719 140.148438 202.710938 139.832031 202.164062 L 120.097656 167.9375 C 117.867188 164.066406 115.992188 160.078125 114.464844 156.007812 L 133.703125 156.007812 C 134.175781 157.035156 134.832031 158.003906 135.679688 158.855469 C 139.496094 162.675781 145.683594 162.675781 149.5 158.855469 C 152.230469 156.117188 153.003906 152.167969 151.828125 148.742188 L 197.453125 103.050781 L 202.382812 115.148438 Z M 190.3125 140.222656 C 188.402344 142.132812 185.300781 142.132812 183.394531 140.222656 C 181.484375 138.3125 181.484375 135.207031 183.394531 133.296875 C 185.300781 131.386719 188.402344 131.386719 190.3125 133.296875 C 192.21875 135.207031 192.21875 138.3125 190.3125 140.222656 Z M 241.242188 133.066406 C 243.148438 131.15625 246.253906 131.15625 248.160156 133.066406 C 250.070312 134.980469 250.070312 138.085938 248.160156 139.996094 C 246.253906 141.90625 243.148438 141.90625 241.242188 139.996094 C 239.335938 138.085938 239.335938 134.980469 241.242188 133.066406 Z M 187.507812 28.011719 C 132.859375 28.011719 88.5625 72.371094 88.5625 127.09375 C 88.5625 167.152344 112.300781 201.65625 146.457031 217.273438 C 146.074219 216.058594 145.660156 214.855469 145.21875 213.660156 L 204.699219 154.09375 L 225.375 162.542969 L 241.96875 145.925781 C 245.277344 146.890625 248.996094 146.066406 251.609375 143.449219 C 255.425781 139.628906 255.425781 133.433594 251.609375 129.613281 C 247.796875 125.792969 241.609375 125.792969 237.792969 129.613281 C 234.945312 132.464844 234.222656 136.640625 235.628906 140.160156 L 223.34375 152.460938 L 202.671875 144.011719 L 174.554688 172.167969 L 169.625 160.070312 L 183.664062 146.011719 C 187.085938 147.191406 191.03125 146.414062 193.761719 143.679688 C 196.492188 140.945312 197.269531 136.992188 196.089844 133.566406 L 212.453125 117.183594 L 204.015625 96.480469 L 234.078125 66.378906 C 242.371094 72.597656 249.476562 80.5625 254.914062 89.996094 C 255.832031 91.585938 256.691406 93.203125 257.488281 94.832031 L 248 91.386719 L 231.402344 108 C 228.089844 107.039062 224.371094 107.863281 221.761719 110.476562 C 217.941406 114.300781 217.941406 120.492188 221.761719 124.316406 C 225.574219 128.136719 231.761719 128.136719 235.578125 124.316406 C 238.425781 121.464844 239.148438 117.289062 237.742188 113.765625 L 250.027344 101.464844 L 261.875 105.777344 C 268.371094 126.332031 266.054688 148.617188 254.914062 167.9375 L 235.183594 202.164062 C 232.417969 206.957031 230.203125 212.027344 228.558594 217.273438 C 262.714844 201.65625 286.453125 167.152344 286.453125 127.09375 C 286.453125 72.371094 242.152344 28.011719 187.507812 28.011719 " clip-rule="nonzero"/></clipPath><linearGradient x1="0.0396753" gradientTransform="matrix(0.000000000000014662, 239.783994, -239.450124, 0.000000000000014683, 187.50725, 18.49793)" y1="0" x2="0.828975" gradientUnits="userSpaceOnUse" y2="0" id="65c4d1b7a0"><stop stop-opacity="1" stop-color="rgb(97.299194%, 89.7995%, 5.499268%)" offset="0"/><stop stop-opacity="1" stop-color="rgb(97.299194%, 89.628601%, 5.499268%)" offset="0.0078125"/><stop stop-opacity="1" stop-color="rgb(97.299194%, 89.268494%, 5.699158%)" offset="0.0117188"/><stop stop-opacity="1" stop-color="rgb(97.299194%, 89.077759%, 5.899048%)" offset="0.015625"/><stop stop-opacity="1" stop-color="rgb(97.299194%, 88.83667%, 5.899048%)" offset="0.0195312"/><stop stop-opacity="1" stop-color="rgb(97.299194%, 88.595581%, 5.899048%)" offset="0.0234375"/><stop stop-opacity="1" stop-color="rgb(97.299194%, 88.397217%, 5.899048%)" offset="0.0273438"/><stop stop-opacity="1" stop-color="rgb(97.299194%, 88.198853%, 5.899048%)" offset="0.03125"/><stop stop-opacity="1" stop-color="rgb(97.099304%, 87.998962%, 5.899048%)" offset="0.0351562"/><stop stop-opacity="1" stop-color="rgb(96.899414%, 87.799072%, 5.899048%)" offset="0.0390625"/><stop stop-opacity="1" stop-color="rgb(96.899414%, 87.649536%, 5.899048%)" offset="0.046875"/><stop stop-opacity="1" stop-color="rgb(96.899414%, 87.298584%, 6.098938%)" offset="0.0507813"/><stop stop-opacity="1" stop-color="rgb(96.899414%, 87.098694%, 6.298828%)" offset="0.0546875"/><stop stop-opacity="1" stop-color="rgb(96.899414%, 86.898804%, 6.298828%)" offset="0.0585938"/><stop stop-opacity="1" stop-color="rgb(96.899414%, 86.698914%, 6.298828%)" offset="0.0625"/><stop stop-opacity="1" stop-color="rgb(96.899414%, 86.499023%, 6.298828%)" offset="0.0664063"/><stop stop-opacity="1" stop-color="rgb(96.899414%, 86.299133%, 6.298828%)" offset="0.0703125"/><stop stop-opacity="1" stop-color="rgb(96.899414%, 86.099243%, 6.298828%)" offset="0.0742188"/><stop stop-opacity="1" stop-color="rgb(96.899414%, 85.899353%, 6.298828%)" offset="0.078125"/><stop stop-opacity="1" stop-color="rgb(96.899414%, 85.699463%, 6.47583%)" offset="0.0820312"/><stop stop-opacity="1" stop-color="rgb(96.899414%, 85.499573%, 6.654358%)" offset="0.0859375"/><stop stop-opacity="1" stop-color="rgb(96.899414%, 85.299683%, 6.67572%)" offset="0.0898438"/><stop stop-opacity="1" stop-color="rgb(96.899414%, 85.099792%, 6.698608%)" offset="0.09375"/><stop stop-opacity="1" stop-color="rgb(96.899414%, 84.898376%, 6.698608%)" offset="0.0976562"/><stop stop-opacity="1" stop-color="rgb(96.899414%, 84.698486%, 6.698608%)" offset="0.101563"/><stop stop-opacity="1" stop-color="rgb(96.899414%, 84.498596%, 6.698608%)" offset="0.105469"/><stop stop-opacity="1" stop-color="rgb(96.899414%, 84.298706%, 6.698608%)" offset="0.109375"/><stop stop-opacity="1" stop-color="rgb(96.899414%, 84.098816%, 6.698608%)" offset="0.113281"/><stop stop-opacity="1" stop-color="rgb(96.899414%, 83.898926%, 6.698608%)" offset="0.117188"/><stop stop-opacity="1" stop-color="rgb(96.899414%, 83.517456%, 6.880188%)" offset="0.121094"/><stop stop-opacity="1" stop-color="rgb(96.899414%, 83.135986%, 7.063293%)" offset="0.125"/><stop stop-opacity="1" stop-color="rgb(96.899414%, 82.945251%, 7.081604%)" offset="0.132813"/><stop stop-opacity="1" stop-color="rgb(96.899414%, 82.603455%, 7.099915%)" offset="0.140625"/><stop stop-opacity="1" stop-color="rgb(96.899414%, 82.226562%, 7.099915%)" offset="0.144531"/><stop stop-opacity="1" stop-color="rgb(96.899414%, 81.999207%, 7.099915%)" offset="0.148438"/><stop stop-opacity="1" stop-color="rgb(96.899414%, 81.803894%, 7.099915%)" offset="0.15625"/><stop stop-opacity="1" stop-color="rgb(96.899414%, 81.419373%, 7.284546%)" offset="0.164062"/><stop stop-opacity="1" stop-color="rgb(96.899414%, 81.036377%, 7.484436%)" offset="0.171875"/><stop stop-opacity="1" stop-color="rgb(96.899414%, 80.654907%, 7.499695%)" offset="0.179688"/><stop stop-opacity="1" stop-color="rgb(96.899414%, 80.273438%, 7.499695%)" offset="0.1875"/><stop stop-opacity="1" stop-color="rgb(96.899414%, 79.841614%, 7.499695%)" offset="0.191406"/><stop stop-opacity="1" stop-color="rgb(96.899414%, 79.602051%, 7.499695%)" offset="0.195312"/><stop stop-opacity="1" stop-color="rgb(96.899414%, 79.411316%, 7.641602%)" offset="0.203125"/><stop stop-opacity="1" stop-color="rgb(96.899414%, 79.029846%, 7.791138%)" offset="0.210938"/><stop stop-opacity="1" stop-color="rgb(96.899414%, 78.619385%, 7.798767%)" offset="0.214844"/><stop stop-opacity="1" stop-color="rgb(96.899414%, 78.399658%, 7.798767%)" offset="0.21875"/><stop stop-opacity="1" stop-color="rgb(96.699524%, 78.199768%, 7.798767%)" offset="0.222656"/><stop stop-opacity="1" stop-color="rgb(96.499634%, 77.999878%, 7.798767%)" offset="0.226562"/><stop stop-opacity="1" stop-color="rgb(96.499634%, 77.796936%, 7.798767%)" offset="0.230469"/><stop stop-opacity="1" stop-color="rgb(96.499634%, 77.59552%, 7.798767%)" offset="0.234375"/><stop stop-opacity="1" stop-color="rgb(96.499634%, 77.44751%, 7.992554%)" offset="0.242188"/><stop stop-opacity="1" stop-color="rgb(96.499634%, 77.099609%, 8.192444%)" offset="0.246094"/><stop stop-opacity="1" stop-color="rgb(96.499634%, 76.899719%, 8.198547%)" offset="0.25"/><stop stop-opacity="1" stop-color="rgb(96.499634%, 76.699829%, 8.198547%)" offset="0.253906"/><stop stop-opacity="1" stop-color="rgb(96.499634%, 76.499939%, 8.198547%)" offset="0.257812"/><stop stop-opacity="1" stop-color="rgb(96.499634%, 76.298523%, 8.198547%)" offset="0.261719"/><stop stop-opacity="1" stop-color="rgb(96.499634%, 76.098633%, 8.198547%)" offset="0.265625"/><stop stop-opacity="1" stop-color="rgb(96.499634%, 75.892639%, 8.198547%)" offset="0.269531"/><stop stop-opacity="1" stop-color="rgb(96.499634%, 75.686646%, 8.198547%)" offset="0.273438"/><stop stop-opacity="1" stop-color="rgb(96.499634%, 75.492859%, 8.395386%)" offset="0.277344"/><stop stop-opacity="1" stop-color="rgb(96.499634%, 75.299072%, 8.59375%)" offset="0.28125"/><stop stop-opacity="1" stop-color="rgb(96.499634%, 75.099182%, 8.596802%)" offset="0.285156"/><stop stop-opacity="1" stop-color="rgb(96.499634%, 74.899292%, 8.599854%)" offset="0.289062"/><stop stop-opacity="1" stop-color="rgb(96.499634%, 74.699402%, 8.599854%)" offset="0.292969"/><stop stop-opacity="1" stop-color="rgb(96.499634%, 74.499512%, 8.599854%)" offset="0.296875"/><stop stop-opacity="1" stop-color="rgb(96.499634%, 74.128723%, 8.599854%)" offset="0.300781"/><stop stop-opacity="1" stop-color="rgb(96.499634%, 73.75946%, 8.599854%)" offset="0.304688"/><stop stop-opacity="1" stop-color="rgb(96.499634%, 73.568726%, 8.599854%)" offset="0.3125"/><stop stop-opacity="1" stop-color="rgb(96.499634%, 73.138428%, 8.599854%)" offset="0.316406"/><stop stop-opacity="1" stop-color="rgb(96.499634%, 72.898865%, 8.601379%)" offset="0.320312"/><stop stop-opacity="1" stop-color="rgb(96.499634%, 72.706604%, 8.799744%)" offset="0.324219"/><stop stop-opacity="1" stop-color="rgb(96.499634%, 72.515869%, 8.999634%)" offset="0.328125"/><stop stop-opacity="1" stop-color="rgb(96.499634%, 72.370911%, 8.999634%)" offset="0.335938"/><stop stop-opacity="1" stop-color="rgb(96.499634%, 72.038269%, 8.999634%)" offset="0.34375"/><stop stop-opacity="1" stop-color="rgb(96.499634%, 71.661377%, 8.999634%)" offset="0.351562"/><stop stop-opacity="1" stop-color="rgb(96.499634%, 71.234131%, 9.004211%)" offset="0.355469"/><stop stop-opacity="1" stop-color="rgb(96.499634%, 70.999146%, 9.008789%)" offset="0.359375"/><stop stop-opacity="1" stop-color="rgb(96.499634%, 70.802307%, 9.204102%)" offset="0.363281"/><stop stop-opacity="1" stop-color="rgb(96.499634%, 70.606995%, 9.399414%)" offset="0.367188"/><stop stop-opacity="1" stop-color="rgb(96.499634%, 70.41626%, 9.399414%)" offset="0.375"/><stop stop-opacity="1" stop-color="rgb(96.499634%, 70.03479%, 9.399414%)" offset="0.382812"/><stop stop-opacity="1" stop-color="rgb(96.499634%, 69.621277%, 9.399414%)" offset="0.386719"/><stop stop-opacity="1" stop-color="rgb(96.499634%, 69.398499%, 9.399414%)" offset="0.390625"/><stop stop-opacity="1" stop-color="rgb(96.299744%, 69.189453%, 9.408569%)" offset="0.394531"/><stop stop-opacity="1" stop-color="rgb(96.099854%, 68.981934%, 9.417725%)" offset="0.398438"/><stop stop-opacity="1" stop-color="rgb(96.099854%, 68.789673%, 9.608459%)" offset="0.40625"/><stop stop-opacity="1" stop-color="rgb(96.099854%, 68.399048%, 9.799194%)" offset="0.410156"/><stop stop-opacity="1" stop-color="rgb(96.099854%, 68.199158%, 9.799194%)" offset="0.414062"/><stop stop-opacity="1" stop-color="rgb(96.099854%, 67.999268%, 9.799194%)" offset="0.417969"/><stop stop-opacity="1" stop-color="rgb(96.099854%, 67.799377%, 9.799194%)" offset="0.421875"/><stop stop-opacity="1" stop-color="rgb(96.099854%, 67.648315%, 9.799194%)" offset="0.429688"/><stop stop-opacity="1" stop-color="rgb(96.099854%, 67.298889%, 9.799194%)" offset="0.433594"/><stop stop-opacity="1" stop-color="rgb(96.099854%, 67.098999%, 9.799194%)" offset="0.4375"/><stop stop-opacity="1" stop-color="rgb(96.099854%, 66.894531%, 9.999084%)" offset="0.441406"/><stop stop-opacity="1" stop-color="rgb(96.099854%, 66.691589%, 10.198975%)" offset="0.445313"/><stop stop-opacity="1" stop-color="rgb(96.099854%, 66.494751%, 10.198975%)" offset="0.449219"/><stop stop-opacity="1" stop-color="rgb(96.099854%, 66.299438%, 10.198975%)" offset="0.453125"/><stop stop-opacity="1" stop-color="rgb(96.099854%, 65.913391%, 10.198975%)" offset="0.457031"/><stop stop-opacity="1" stop-color="rgb(96.099854%, 65.52887%, 10.198975%)" offset="0.460938"/><stop stop-opacity="1" stop-color="rgb(96.099854%, 65.338135%, 10.198975%)" offset="0.46875"/><stop stop-opacity="1" stop-color="rgb(96.099854%, 64.956665%, 10.198975%)" offset="0.476562"/><stop stop-opacity="1" stop-color="rgb(96.099854%, 64.532471%, 10.206604%)" offset="0.480469"/><stop stop-opacity="1" stop-color="rgb(96.099854%, 64.299011%, 10.214233%)" offset="0.484375"/><stop stop-opacity="1" stop-color="rgb(96.099854%, 64.100647%, 10.406494%)" offset="0.488281"/><stop stop-opacity="1" stop-color="rgb(96.099854%, 63.902283%, 10.598755%)" offset="0.492188"/><stop stop-opacity="1" stop-color="rgb(96.099854%, 63.711548%, 10.598755%)" offset="0.5"/><stop stop-opacity="1" stop-color="rgb(96.099854%, 63.330078%, 10.598755%)" offset="0.507812"/><stop stop-opacity="1" stop-color="rgb(96.099854%, 62.948608%, 10.598755%)" offset="0.515625"/><stop stop-opacity="1" stop-color="rgb(96.099854%, 62.57782%, 10.598755%)" offset="0.523438"/><stop stop-opacity="1" stop-color="rgb(96.099854%, 62.19635%, 10.798645%)" offset="0.527344"/><stop stop-opacity="1" stop-color="rgb(96.099854%, 61.994934%, 10.998535%)" offset="0.53125"/><stop stop-opacity="1" stop-color="rgb(96.099854%, 61.79657%, 10.998535%)" offset="0.535156"/><stop stop-opacity="1" stop-color="rgb(96.099854%, 61.599731%, 10.998535%)" offset="0.539063"/><stop stop-opacity="1" stop-color="rgb(96.099854%, 61.399841%, 10.998535%)" offset="0.542969"/><stop stop-opacity="1" stop-color="rgb(96.099854%, 61.199951%, 10.998535%)" offset="0.546875"/><stop stop-opacity="1" stop-color="rgb(96.099854%, 60.998535%, 10.998535%)" offset="0.550781"/><stop stop-opacity="1" stop-color="rgb(96.099854%, 60.798645%, 10.998535%)" offset="0.554688"/><stop stop-opacity="1" stop-color="rgb(95.933533%, 60.598755%, 10.998535%)" offset="0.558594"/><stop stop-opacity="1" stop-color="rgb(95.768738%, 60.398865%, 10.998535%)" offset="0.5625"/><stop stop-opacity="1" stop-color="rgb(95.733643%, 60.192871%, 11.004639%)" offset="0.566406"/><stop stop-opacity="1" stop-color="rgb(95.698547%, 59.986877%, 11.010742%)" offset="0.570313"/><stop stop-opacity="1" stop-color="rgb(95.698547%, 59.793091%, 11.204529%)" offset="0.578125"/><stop stop-opacity="1" stop-color="rgb(95.698547%, 59.399414%, 11.399841%)" offset="0.582031"/><stop stop-opacity="1" stop-color="rgb(95.698547%, 59.199524%, 11.399841%)" offset="0.585938"/><stop stop-opacity="1" stop-color="rgb(95.698547%, 58.999634%, 11.399841%)" offset="0.589844"/><stop stop-opacity="1" stop-color="rgb(95.698547%, 58.799744%, 11.399841%)" offset="0.59375"/><stop stop-opacity="1" stop-color="rgb(95.698547%, 58.430481%, 11.399841%)" offset="0.597656"/><stop stop-opacity="1" stop-color="rgb(95.698547%, 58.061218%, 11.399841%)" offset="0.601562"/><stop stop-opacity="1" stop-color="rgb(95.698547%, 57.829285%, 11.399841%)" offset="0.605469"/><stop stop-opacity="1" stop-color="rgb(95.698547%, 57.598877%, 11.399841%)" offset="0.609375"/><stop stop-opacity="1" stop-color="rgb(95.698547%, 57.449341%, 11.599731%)" offset="0.613281"/><stop stop-opacity="1" stop-color="rgb(95.698547%, 57.299805%, 11.799622%)" offset="0.617188"/><stop stop-opacity="1" stop-color="rgb(95.698547%, 57.107544%, 11.799622%)" offset="0.625"/><stop stop-opacity="1" stop-color="rgb(95.698547%, 56.726074%, 11.799622%)" offset="0.632812"/><stop stop-opacity="1" stop-color="rgb(95.698547%, 56.344604%, 11.799622%)" offset="0.640625"/><stop stop-opacity="1" stop-color="rgb(95.698547%, 55.926514%, 11.799622%)" offset="0.644531"/><stop stop-opacity="1" stop-color="rgb(95.698547%, 55.699158%, 11.799622%)" offset="0.648438"/><stop stop-opacity="1" stop-color="rgb(95.698547%, 55.499268%, 11.802673%)" offset="0.652344"/><stop stop-opacity="1" stop-color="rgb(95.698547%, 55.299377%, 11.807251%)" offset="0.65625"/><stop stop-opacity="1" stop-color="rgb(95.698547%, 55.104065%, 12.002563%)" offset="0.660156"/><stop stop-opacity="1" stop-color="rgb(95.698547%, 54.908752%, 12.199402%)" offset="0.664062"/><stop stop-opacity="1" stop-color="rgb(95.698547%, 54.704285%, 12.199402%)" offset="0.667969"/><stop stop-opacity="1" stop-color="rgb(95.698547%, 54.499817%, 12.199402%)" offset="0.671875"/><stop stop-opacity="1" stop-color="rgb(95.698547%, 54.298401%, 12.199402%)" offset="0.675781"/><stop stop-opacity="1" stop-color="rgb(95.698547%, 54.098511%, 12.199402%)" offset="0.679688"/><stop stop-opacity="1" stop-color="rgb(95.698547%, 53.898621%, 12.199402%)" offset="0.683594"/><stop stop-opacity="1" stop-color="rgb(95.698547%, 53.69873%, 12.199402%)" offset="0.6875"/><stop stop-opacity="1" stop-color="rgb(95.698547%, 53.489685%, 12.199402%)" offset="0.691406"/><stop stop-opacity="1" stop-color="rgb(95.698547%, 53.282166%, 12.199402%)" offset="0.695313"/><stop stop-opacity="1" stop-color="rgb(95.698547%, 53.089905%, 12.199402%)" offset="0.703125"/><stop stop-opacity="1" stop-color="rgb(95.698547%, 52.69928%, 12.348938%)" offset="0.707031"/><stop stop-opacity="1" stop-color="rgb(95.698547%, 52.49939%, 12.5%)" offset="0.710938"/><stop stop-opacity="1" stop-color="rgb(95.698547%, 52.348328%, 12.5%)" offset="0.71875"/><stop stop-opacity="1" stop-color="rgb(95.498657%, 51.998901%, 12.5%)" offset="0.722656"/><stop stop-opacity="1" stop-color="rgb(95.298767%, 51.799011%, 12.5%)" offset="0.726562"/><stop stop-opacity="1" stop-color="rgb(95.298767%, 51.399231%, 12.5%)" offset="0.730469"/><stop stop-opacity="1" stop-color="rgb(95.298767%, 50.999451%, 12.5%)" offset="0.734375"/><stop stop-opacity="1" stop-color="rgb(95.298767%, 50.799561%, 12.5%)" offset="0.738281"/><stop stop-opacity="1" stop-color="rgb(95.298767%, 50.59967%, 12.5%)" offset="0.742188"/><stop stop-opacity="1" stop-color="rgb(95.298767%, 50.405884%, 12.692261%)" offset="0.75"/><stop stop-opacity="1" stop-color="rgb(95.298767%, 50.021362%, 12.892151%)" offset="0.757812"/><stop stop-opacity="1" stop-color="rgb(95.298767%, 49.639893%, 12.89978%)" offset="0.765625"/><stop stop-opacity="1" stop-color="rgb(95.298767%, 49.223328%, 12.89978%)" offset="0.769531"/><stop stop-opacity="1" stop-color="rgb(95.298767%, 48.999023%, 12.89978%)" offset="0.773438"/><stop stop-opacity="1" stop-color="rgb(95.298767%, 48.799133%, 12.89978%)" offset="0.777344"/><stop stop-opacity="1" stop-color="rgb(95.298767%, 48.599243%, 12.89978%)" offset="0.78125"/><stop stop-opacity="1" stop-color="rgb(95.298767%, 48.400879%, 12.89978%)" offset="0.785156"/><stop stop-opacity="1" stop-color="rgb(95.298767%, 48.204041%, 12.89978%)" offset="0.789062"/><stop stop-opacity="1" stop-color="rgb(95.298767%, 48.001099%, 13.087463%)" offset="0.792969"/><stop stop-opacity="1" stop-color="rgb(95.298767%, 47.799683%, 13.275146%)" offset="0.796875"/><stop stop-opacity="1" stop-color="rgb(95.298767%, 47.648621%, 13.287354%)" offset="0.804688"/><stop stop-opacity="1" stop-color="rgb(95.298767%, 47.299194%, 13.299561%)" offset="0.808594"/><stop stop-opacity="1" stop-color="rgb(95.298767%, 47.099304%, 13.299561%)" offset="0.8125"/><stop stop-opacity="1" stop-color="rgb(95.298767%, 46.888733%, 13.299561%)" offset="0.816406"/><stop stop-opacity="1" stop-color="rgb(95.298767%, 46.678162%, 13.299561%)" offset="0.820313"/><stop stop-opacity="1" stop-color="rgb(95.298767%, 46.487427%, 13.299561%)" offset="0.828125"/><stop stop-opacity="1" stop-color="rgb(95.298767%, 46.098328%, 13.299561%)" offset="0.832031"/><stop stop-opacity="1" stop-color="rgb(95.298767%, 45.899963%, 13.299561%)" offset="0.835938"/><stop stop-opacity="1" stop-color="rgb(95.298767%, 45.698547%, 13.482666%)" offset="0.839844"/><stop stop-opacity="1" stop-color="rgb(95.298767%, 45.498657%, 13.665771%)" offset="0.84375"/><stop stop-opacity="1" stop-color="rgb(95.298767%, 45.124817%, 13.682556%)" offset="0.847656"/><stop stop-opacity="1" stop-color="rgb(95.298767%, 44.752502%, 13.699341%)" offset="0.851563"/><stop stop-opacity="1" stop-color="rgb(95.298767%, 44.525146%, 13.699341%)" offset="0.855469"/><stop stop-opacity="1" stop-color="rgb(95.298767%, 44.299316%, 13.699341%)" offset="0.859375"/><stop stop-opacity="1" stop-color="rgb(95.298767%, 44.099426%, 13.699341%)" offset="0.863281"/><stop stop-opacity="1" stop-color="rgb(95.298767%, 43.899536%, 13.699341%)" offset="0.867188"/><stop stop-opacity="1" stop-color="rgb(95.101929%, 43.702698%, 13.699341%)" offset="0.871094"/><stop stop-opacity="1" stop-color="rgb(94.906616%, 43.507385%, 13.699341%)" offset="0.875"/><stop stop-opacity="1" stop-color="rgb(94.902039%, 43.31665%, 13.699341%)" offset="0.882812"/><stop stop-opacity="1" stop-color="rgb(94.898987%, 42.935181%, 13.876343%)" offset="0.890625"/><stop stop-opacity="1" stop-color="rgb(94.898987%, 42.572021%, 14.076233%)" offset="0.898438"/><stop stop-opacity="1" stop-color="rgb(94.898987%, 42.190552%, 14.099121%)" offset="0.902344"/><stop stop-opacity="1" stop-color="rgb(94.898987%, 41.981506%, 14.099121%)" offset="0.90625"/><stop stop-opacity="1" stop-color="rgb(94.898987%, 41.789246%, 14.099121%)" offset="0.914063"/><stop stop-opacity="1" stop-color="rgb(94.898987%, 41.398621%, 14.099121%)" offset="0.917969"/><stop stop-opacity="1" stop-color="rgb(94.898987%, 41.19873%, 14.099121%)" offset="0.921875"/><stop stop-opacity="1" stop-color="rgb(94.898987%, 40.99884%, 14.099121%)" offset="0.925781"/><stop stop-opacity="1" stop-color="rgb(94.898987%, 40.79895%, 14.099121%)" offset="0.929688"/><stop stop-opacity="1" stop-color="rgb(94.898987%, 40.59906%, 14.271545%)" offset="0.933594"/><stop stop-opacity="1" stop-color="rgb(94.898987%, 40.39917%, 14.44397%)" offset="0.9375"/><stop stop-opacity="1" stop-color="rgb(94.898987%, 40.185547%, 14.471436%)" offset="0.941406"/><stop stop-opacity="1" stop-color="rgb(94.898987%, 39.97345%, 14.498901%)" offset="0.945313"/><stop stop-opacity="1" stop-color="rgb(94.898987%, 39.782715%, 14.498901%)" offset="0.953125"/><stop stop-opacity="1" stop-color="rgb(94.898987%, 39.201355%, 14.498901%)" offset="0.957031"/><stop stop-opacity="1" stop-color="rgb(94.898987%, 38.81073%, 14.498901%)" offset="0.960938"/><stop stop-opacity="1" stop-color="rgb(94.898987%, 38.619995%, 14.498901%)" offset="0.96875"/><stop stop-opacity="1" stop-color="rgb(94.898987%, 38.238525%, 14.498901%)" offset="0.976563"/><stop stop-opacity="1" stop-color="rgb(94.898987%, 37.823486%, 14.515686%)" offset="0.980469"/><stop stop-opacity="1" stop-color="rgb(94.898987%, 37.599182%, 14.532471%)" offset="0.984375"/><stop stop-opacity="1" stop-color="rgb(94.898987%, 37.44812%, 14.715576%)" offset="0.992188"/><stop stop-opacity="1" stop-color="rgb(94.898987%, 37.10022%, 14.898682%)" offset="0.996094"/><stop stop-opacity="1" stop-color="rgb(94.898987%, 36.901855%, 14.898682%)" offset="1"/></linearGradient><clipPath id="8e1bbfd5a6"><path d="M 160.910156 167.707031 L 223.394531 167.707031 L 223.394531 223.613281 L 160.910156 223.613281 Z M 160.910156 167.707031 " clip-rule="nonzero"/></clipPath><clipPath id="621eabf8dd"><path d="M 216.996094 181.03125 C 215.085938 182.945312 211.984375 182.945312 210.074219 181.03125 C 208.167969 179.125 208.167969 176.015625 210.074219 174.105469 C 211.984375 172.195312 215.085938 172.195312 216.996094 174.105469 C 218.902344 176.015625 218.902344 179.125 216.996094 181.03125 Z M 220.445312 170.652344 C 216.628906 166.828125 210.441406 166.832031 206.625 170.652344 C 204.015625 173.265625 203.191406 176.992188 204.152344 180.308594 L 160.910156 223.613281 L 173.003906 223.613281 L 209.910156 186.65625 C 213.429688 188.0625 217.597656 187.339844 220.445312 184.488281 C 224.261719 180.667969 224.261719 174.472656 220.445312 170.652344 Z M 220.445312 170.652344 " clip-rule="nonzero"/></clipPath><clipPath id="9f196a45c6"><path d="M 216.996094 181.03125 C 215.085938 182.945312 211.984375 182.945312 210.074219 181.03125 C 208.167969 179.125 208.167969 176.015625 210.074219 174.105469 C 211.984375 172.195312 215.085938 172.195312 216.996094 174.105469 C 218.902344 176.015625 218.902344 179.125 216.996094 181.03125 Z M 220.445312 170.652344 C 216.628906 166.828125 210.441406 166.832031 206.625 170.652344 C 204.015625 173.265625 203.191406 176.992188 204.152344 180.308594 L 160.910156 223.613281 L 173.003906 223.613281 L 209.910156 186.65625 C 213.429688 188.0625 217.597656 187.339844 220.445312 184.488281 C 224.261719 180.667969 224.261719 174.472656 220.445312 170.652344 " clip-rule="nonzero"/></clipPath><linearGradient x1="0.622268" gradientTransform="matrix(0, 239.783994, -239.450124, 0, 192.10748, 18.49793)" y1="0" x2="0.855417" gradientUnits="userSpaceOnUse" y2="0" id="bc3b88851a"><stop stop-opacity="1" stop-color="rgb(95.298767%, 51.052856%, 12.5%)" offset="0"/><stop stop-opacity="1" stop-color="rgb(95.298767%, 51.025391%, 12.5%)" offset="0.015625"/><stop stop-opacity="1" stop-color="rgb(95.298767%, 50.827026%, 12.5%)" offset="0.03125"/><stop stop-opacity="1" stop-color="rgb(95.298767%, 50.462341%, 12.663269%)" offset="0.046875"/><stop stop-opacity="1" stop-color="rgb(95.298767%, 50.234985%, 12.863159%)" offset="0.0625"/><stop stop-opacity="1" stop-color="rgb(95.298767%, 50.036621%, 12.89978%)" offset="0.078125"/><stop stop-opacity="1" stop-color="rgb(95.298767%, 49.772644%, 12.89978%)" offset="0.0859375"/><stop stop-opacity="1" stop-color="rgb(95.298767%, 49.569702%, 12.89978%)" offset="0.09375"/><stop stop-opacity="1" stop-color="rgb(95.298767%, 49.278259%, 12.89978%)" offset="0.125"/><stop stop-opacity="1" stop-color="rgb(95.298767%, 49.0448%, 12.89978%)" offset="0.140625"/><stop stop-opacity="1" stop-color="rgb(95.298767%, 48.846436%, 12.89978%)" offset="0.15625"/><stop stop-opacity="1" stop-color="rgb(95.298767%, 48.500061%, 12.89978%)" offset="0.171875"/><stop stop-opacity="1" stop-color="rgb(95.298767%, 48.252869%, 12.89978%)" offset="0.1875"/><stop stop-opacity="1" stop-color="rgb(95.298767%, 48.054504%, 13.043213%)" offset="0.203125"/><stop stop-opacity="1" stop-color="rgb(95.298767%, 47.744751%, 13.243103%)" offset="0.21875"/><stop stop-opacity="1" stop-color="rgb(95.298767%, 47.40448%, 13.299561%)" offset="0.25"/><stop stop-opacity="1" stop-color="rgb(95.298767%, 47.129822%, 13.299561%)" offset="0.257812"/><stop stop-opacity="1" stop-color="rgb(95.298767%, 46.928406%, 13.299561%)" offset="0.265625"/><stop stop-opacity="1" stop-color="rgb(95.298767%, 46.762085%, 13.299561%)" offset="0.28125"/><stop stop-opacity="1" stop-color="rgb(95.298767%, 46.572876%, 13.299561%)" offset="0.296875"/><stop stop-opacity="1" stop-color="rgb(95.298767%, 46.347046%, 13.299561%)" offset="0.304688"/><stop stop-opacity="1" stop-color="rgb(95.298767%, 46.14563%, 13.299561%)" offset="0.3125"/><stop stop-opacity="1" stop-color="rgb(95.298767%, 45.97168%, 13.299561%)" offset="0.328125"/><stop stop-opacity="1" stop-color="rgb(95.298767%, 45.773315%, 13.299561%)" offset="0.34375"/><stop stop-opacity="1" stop-color="rgb(95.298767%, 45.571899%, 13.423157%)" offset="0.359375"/><stop stop-opacity="1" stop-color="rgb(95.298767%, 45.38269%, 13.623047%)" offset="0.375"/><stop stop-opacity="1" stop-color="rgb(95.298767%, 45.169067%, 13.699341%)" offset="0.382812"/><stop stop-opacity="1" stop-color="rgb(95.298767%, 44.967651%, 13.699341%)" offset="0.390625"/><stop stop-opacity="1" stop-color="rgb(95.298767%, 44.781494%, 13.699341%)" offset="0.40625"/><stop stop-opacity="1" stop-color="rgb(95.298767%, 44.590759%, 13.699341%)" offset="0.421875"/><stop stop-opacity="1" stop-color="rgb(95.298767%, 44.386292%, 13.699341%)" offset="0.429688"/><stop stop-opacity="1" stop-color="rgb(95.298767%, 44.186401%, 13.699341%)" offset="0.4375"/><stop stop-opacity="1" stop-color="rgb(95.298767%, 43.991089%, 13.699341%)" offset="0.453125"/><stop stop-opacity="1" stop-color="rgb(95.193481%, 43.792725%, 13.699341%)" offset="0.46875"/><stop stop-opacity="1" stop-color="rgb(94.993591%, 43.585205%, 13.699341%)" offset="0.476562"/><stop stop-opacity="1" stop-color="rgb(94.898987%, 43.385315%, 13.699341%)" offset="0.484375"/><stop stop-opacity="1" stop-color="rgb(94.898987%, 43.19458%, 13.699341%)" offset="0.5"/><stop stop-opacity="1" stop-color="rgb(94.898987%, 43.002319%, 13.795471%)" offset="0.515625"/><stop stop-opacity="1" stop-color="rgb(94.898987%, 42.730713%, 13.995361%)" offset="0.53125"/><stop stop-opacity="1" stop-color="rgb(94.898987%, 42.388916%, 14.099121%)" offset="0.5625"/><stop stop-opacity="1" stop-color="rgb(94.898987%, 42.111206%, 14.099121%)" offset="0.578125"/><stop stop-opacity="1" stop-color="rgb(94.898987%, 41.912842%, 14.099121%)" offset="0.59375"/><stop stop-opacity="1" stop-color="rgb(94.898987%, 41.723633%, 14.099121%)" offset="0.601562"/><stop stop-opacity="1" stop-color="rgb(94.898987%, 41.523743%, 14.099121%)" offset="0.609375"/><stop stop-opacity="1" stop-color="rgb(94.898987%, 41.313171%, 14.099121%)" offset="0.625"/><stop stop-opacity="1" stop-color="rgb(94.898987%, 41.122437%, 14.099121%)" offset="0.640625"/><stop stop-opacity="1" stop-color="rgb(94.898987%, 40.942383%, 14.099121%)" offset="0.648438"/><stop stop-opacity="1" stop-color="rgb(94.898987%, 40.742493%, 14.099121%)" offset="0.65625"/><stop stop-opacity="1" stop-color="rgb(94.898987%, 40.52124%, 14.169312%)" offset="0.671875"/><stop stop-opacity="1" stop-color="rgb(94.898987%, 40.332031%, 14.369202%)" offset="0.6875"/><stop stop-opacity="1" stop-color="rgb(94.898987%, 40.161133%, 14.498901%)" offset="0.695312"/><stop stop-opacity="1" stop-color="rgb(94.898987%, 39.959717%, 14.498901%)" offset="0.703125"/><stop stop-opacity="1" stop-color="rgb(94.898987%, 39.730835%, 14.498901%)" offset="0.71875"/><stop stop-opacity="1" stop-color="rgb(94.898987%, 39.532471%, 14.498901%)" offset="0.734375"/><stop stop-opacity="1" stop-color="rgb(94.898987%, 39.332581%, 14.498901%)" offset="0.75"/><stop stop-opacity="1" stop-color="rgb(94.898987%, 39.143372%, 14.498901%)" offset="0.765625"/><stop stop-opacity="1" stop-color="rgb(94.898987%, 38.983154%, 14.498901%)" offset="0.773438"/><stop stop-opacity="1" stop-color="rgb(94.898987%, 38.781738%, 14.498901%)" offset="0.78125"/><stop stop-opacity="1" stop-color="rgb(94.898987%, 38.493347%, 14.498901%)" offset="0.8125"/><stop stop-opacity="1" stop-color="rgb(94.898987%, 38.201904%, 14.498901%)" offset="0.820312"/><stop stop-opacity="1" stop-color="rgb(94.898987%, 37.998962%, 14.498901%)" offset="0.828125"/><stop stop-opacity="1" stop-color="rgb(94.898987%, 37.748718%, 14.544678%)" offset="0.84375"/><stop stop-opacity="1" stop-color="rgb(94.898987%, 37.408447%, 14.744568%)" offset="0.875"/><stop stop-opacity="1" stop-color="rgb(94.898987%, 37.057495%, 14.898682%)" offset="0.890625"/><stop stop-opacity="1" stop-color="rgb(94.898987%, 36.859131%, 14.898682%)" offset="0.90625"/><stop stop-opacity="1" stop-color="rgb(94.898987%, 36.627197%, 14.898682%)" offset="0.921875"/><stop stop-opacity="1" stop-color="rgb(94.871521%, 36.26709%, 14.898682%)" offset="0.9375"/><stop stop-opacity="1" stop-color="rgb(94.671631%, 36.068726%, 14.898682%)" offset="0.953125"/><stop stop-opacity="1" stop-color="rgb(94.499207%, 35.842896%, 14.898682%)" offset="0.96875"/><stop stop-opacity="1" stop-color="rgb(94.499207%, 35.473633%, 14.898682%)" offset="1"/></linearGradient><clipPath id="11d2212b80"><path d="M 154.378906 217.285156 L 216.214844 217.285156 L 216.214844 229.941406 L 154.378906 229.941406 Z M 154.378906 217.285156 " clip-rule="nonzero"/></clipPath><clipPath id="073b6c7deb"><path d="M 154.378906 223.613281 C 154.378906 227.109375 157.207031 229.941406 160.699219 229.941406 L 209.894531 229.941406 C 213.382812 229.941406 216.214844 227.109375 216.214844 223.613281 C 216.214844 220.117188 213.382812 217.285156 209.894531 217.285156 L 160.699219 217.285156 C 157.207031 217.285156 154.378906 220.117188 154.378906 223.613281 Z M 154.378906 223.613281 " clip-rule="nonzero"/></clipPath><clipPath id="5917cac278"><path d="M 154.378906 223.613281 C 154.378906 227.109375 157.207031 229.941406 160.699219 229.941406 L 209.894531 229.941406 C 213.382812 229.941406 216.214844 227.109375 216.214844 223.613281 C 216.214844 220.117188 213.382812 217.285156 209.894531 217.285156 L 160.699219 217.285156 C 157.207031 217.285156 154.378906 220.117188 154.378906 223.613281 " clip-rule="nonzero"/></clipPath><linearGradient x1="0.829021" gradientTransform="matrix(0, 239.783994, -239.450124, 0, 185.29579, 18.49793)" y1="0" x2="0.881814" gradientUnits="userSpaceOnUse" y2="0" id="d2feaad77c"><stop stop-opacity="1" stop-color="rgb(94.898987%, 36.898804%, 14.898682%)" offset="0"/><stop stop-opacity="1" stop-color="rgb(94.898987%, 36.898804%, 14.898682%)" offset="0.0625"/><stop stop-opacity="1" stop-color="rgb(94.898987%, 36.799622%, 14.898682%)" offset="0.09375"/><stop stop-opacity="1" stop-color="rgb(94.898987%, 36.599731%, 14.898682%)" offset="0.125"/><stop stop-opacity="1" stop-color="rgb(94.898987%, 36.499023%, 14.898682%)" offset="0.1875"/><stop stop-opacity="1" stop-color="rgb(94.898987%, 36.401367%, 14.898682%)" offset="0.21875"/><stop stop-opacity="1" stop-color="rgb(94.898987%, 36.203003%, 14.898682%)" offset="0.25"/><stop stop-opacity="1" stop-color="rgb(94.703674%, 36.100769%, 14.898682%)" offset="0.3125"/><stop stop-opacity="1" stop-color="rgb(94.503784%, 36.003113%, 14.898682%)" offset="0.34375"/><stop stop-opacity="1" stop-color="rgb(94.499207%, 35.806274%, 14.898682%)" offset="0.375"/><stop stop-opacity="1" stop-color="rgb(94.499207%, 35.606384%, 14.898682%)" offset="0.40625"/><stop stop-opacity="1" stop-color="rgb(94.499207%, 35.409546%, 14.898682%)" offset="0.4375"/><stop stop-opacity="1" stop-color="rgb(94.499207%, 35.30426%, 14.898682%)" offset="0.5"/><stop stop-opacity="1" stop-color="rgb(94.499207%, 35.105896%, 15.090942%)" offset="0.5625"/><stop stop-opacity="1" stop-color="rgb(94.499207%, 34.906006%, 15.292358%)" offset="0.625"/><stop stop-opacity="1" stop-color="rgb(94.499207%, 34.707642%, 15.299988%)" offset="0.6875"/><stop stop-opacity="1" stop-color="rgb(94.499207%, 34.507751%, 15.299988%)" offset="0.75"/><stop stop-opacity="1" stop-color="rgb(94.499207%, 34.309387%, 15.299988%)" offset="0.8125"/><stop stop-opacity="1" stop-color="rgb(94.499207%, 34.01947%, 15.299988%)" offset="0.84375"/><stop stop-opacity="1" stop-color="rgb(94.499207%, 33.81958%, 15.299988%)" offset="0.875"/><stop stop-opacity="1" stop-color="rgb(94.499207%, 33.708191%, 15.299988%)" offset="0.9375"/><stop stop-opacity="1" stop-color="rgb(94.499207%, 33.509827%, 15.299988%)" offset="1"/></linearGradient><clipPath id="3c1993e335"><path d="M 165.359375 242.601562 L 205.230469 242.601562 L 205.230469 255.261719 L 165.359375 255.261719 Z M 165.359375 242.601562 " clip-rule="nonzero"/></clipPath><clipPath id="469f9fd965"><path d="M 165.359375 248.929688 C 165.359375 252.425781 168.191406 255.261719 171.679688 255.261719 L 198.910156 255.261719 C 202.402344 255.261719 205.230469 252.425781 205.230469 248.929688 C 205.230469 245.4375 202.402344 242.601562 198.910156 242.601562 L 171.679688 242.601562 C 168.191406 242.601562 165.359375 245.4375 165.359375 248.929688 Z M 165.359375 248.929688 " clip-rule="nonzero"/></clipPath><clipPath id="916528ebe6"><path d="M 165.359375 248.929688 C 165.359375 252.425781 168.191406 255.261719 171.679688 255.261719 L 198.910156 255.261719 C 202.402344 255.261719 205.230469 252.425781 205.230469 248.929688 C 205.230469 245.4375 202.402344 242.601562 198.910156 242.601562 L 171.679688 242.601562 C 168.191406 242.601562 165.359375 245.4375 165.359375 248.929688 " clip-rule="nonzero"/></clipPath><linearGradient x1="0.934607" gradientTransform="matrix(0, 239.783994, -239.450124, 0, 185.29579, 18.49793)" y1="0" x2="0.9874" gradientUnits="userSpaceOnUse" y2="0" id="a68fb99e52"><stop stop-opacity="1" stop-color="rgb(94.499207%, 29.798889%, 15.699768%)" offset="0"/><stop stop-opacity="1" stop-color="rgb(94.499207%, 29.621887%, 15.699768%)" offset="0.0625"/><stop stop-opacity="1" stop-color="rgb(94.499207%, 29.421997%, 15.881348%)" offset="0.125"/><stop stop-opacity="1" stop-color="rgb(94.499207%, 29.216003%, 16.081238%)" offset="0.1875"/><stop stop-opacity="1" stop-color="rgb(94.499207%, 29.016113%, 16.099548%)" offset="0.25"/><stop stop-opacity="1" stop-color="rgb(94.499207%, 28.808594%, 16.099548%)" offset="0.3125"/><stop stop-opacity="1" stop-color="rgb(94.30542%, 28.608704%, 16.099548%)" offset="0.375"/><stop stop-opacity="1" stop-color="rgb(94.10553%, 28.503418%, 16.099548%)" offset="0.40625"/><stop stop-opacity="1" stop-color="rgb(94.099426%, 28.308105%, 16.099548%)" offset="0.4375"/><stop stop-opacity="1" stop-color="rgb(94.099426%, 28.105164%, 16.099548%)" offset="0.46875"/><stop stop-opacity="1" stop-color="rgb(94.099426%, 27.900696%, 16.099548%)" offset="0.5"/><stop stop-opacity="1" stop-color="rgb(94.099426%, 27.648926%, 16.099548%)" offset="0.625"/><stop stop-opacity="1" stop-color="rgb(94.099426%, 27.49176%, 16.099548%)" offset="0.6875"/><stop stop-opacity="1" stop-color="rgb(94.099426%, 27.380371%, 16.099548%)" offset="0.71875"/><stop stop-opacity="1" stop-color="rgb(94.099426%, 27.175903%, 16.099548%)" offset="0.75"/><stop stop-opacity="1" stop-color="rgb(94.099426%, 26.887512%, 16.113281%)" offset="0.8125"/><stop stop-opacity="1" stop-color="rgb(94.099426%, 26.681519%, 16.313171%)" offset="0.875"/><stop stop-opacity="1" stop-color="rgb(94.099426%, 26.480103%, 16.499329%)" offset="1"/></linearGradient></defs><g clip-path="url(#294e98d108)"><g clip-path="url(#0934d330b0)"><g clip-path="url(#bcf14f3e8f)"><path fill="url(#65c4d1b7a0)" d="M 286.453125 28.011719 L 88.5625 28.011719 L 88.5625 217.273438 L 286.453125 217.273438 Z M 286.453125 28.011719 " fill-rule="nonzero"/></g></g></g><g clip-path="url(#8e1bbfd5a6)"><g clip-path="url(#621eabf8dd)"><g clip-path="url(#9f196a45c6)"><path fill="url(#bc3b88851a)" d="M 223.394531 167.707031 L 160.910156 167.707031 L 160.910156 223.613281 L 223.394531 223.613281 Z M 223.394531 167.707031 " fill-rule="nonzero"/></g></g></g><g clip-path="url(#11d2212b80)"><g clip-path="url(#073b6c7deb)"><g clip-path="url(#5917cac278)"><path fill="url(#d2feaad77c)" d="M 216.214844 217.285156 L 154.378906 217.285156 L 154.378906 229.941406 L 216.214844 229.941406 Z M 216.214844 217.285156 " fill-rule="nonzero"/></g></g></g><g clip-path="url(#3c1993e335)"><g clip-path="url(#469f9fd965)"><g clip-path="url(#916528ebe6)"><path fill="url(#a68fb99e52)" d="M 205.230469 242.601562 L 165.359375 242.601562 L 165.359375 255.261719 L 205.230469 255.261719 Z M 205.230469 242.601562 " fill-rule="nonzero"/></g></g></g><g fill="#ffffff" fill-opacity="1"><g transform="translate(73.111188, 316.588784)"><g><path d="M 21.65625 0.484375 C 18.21875 0.484375 15.078125 -0.363281 12.234375 -2.0625 C 9.398438 -3.769531 7.164062 -6.097656 5.53125 -9.046875 C 3.894531 -11.992188 3.078125 -15.25 3.078125 -18.8125 C 3.078125 -22.34375 3.894531 -25.570312 5.53125 -28.5 C 7.164062 -31.4375 9.398438 -33.757812 12.234375 -35.46875 C 15.078125 -37.1875 18.21875 -38.046875 21.65625 -38.046875 C 24.09375 -38.046875 26.195312 -37.722656 27.96875 -37.078125 C 29.75 -36.441406 31.554688 -35.390625 33.390625 -33.921875 C 33.773438 -33.628906 34.03125 -33.328125 34.15625 -33.015625 C 34.28125 -32.710938 34.34375 -32.351562 34.34375 -31.9375 C 34.34375 -31.300781 34.109375 -30.773438 33.640625 -30.359375 C 33.179688 -29.941406 32.648438 -29.734375 32.046875 -29.734375 C 31.429688 -29.734375 30.867188 -29.941406 30.359375 -30.359375 C 29.046875 -31.484375 27.757812 -32.289062 26.5 -32.78125 C 25.25 -33.28125 23.632812 -33.53125 21.65625 -33.53125 C 19.144531 -33.53125 16.835938 -32.875 14.734375 -31.5625 C 12.640625 -30.25 10.972656 -28.457031 9.734375 -26.1875 C 8.503906 -23.925781 7.890625 -21.46875 7.890625 -18.8125 C 7.890625 -16.113281 8.503906 -13.640625 9.734375 -11.390625 C 10.972656 -9.148438 12.640625 -7.375 14.734375 -6.0625 C 16.835938 -4.75 19.144531 -4.09375 21.65625 -4.09375 C 24.726562 -4.09375 27.675781 -5.148438 30.5 -7.265625 C 31.039062 -7.648438 31.570312 -7.84375 32.09375 -7.84375 C 32.695312 -7.84375 33.195312 -7.625 33.59375 -7.1875 C 34 -6.757812 34.203125 -6.191406 34.203125 -5.484375 C 34.203125 -4.804688 33.945312 -4.210938 33.4375 -3.703125 C 29.96875 -0.910156 26.039062 0.484375 21.65625 0.484375 Z M 21.65625 0.484375 "/></g></g></g><g fill="#ffffff" fill-opacity="1"><g transform="translate(110.493652, 316.588784)"><g><path d="M 16.265625 0.1875 C 13.691406 0.1875 11.394531 -0.378906 9.375 -1.515625 C 7.351562 -2.648438 5.78125 -4.226562 4.65625 -6.25 C 3.539062 -8.269531 2.984375 -10.566406 2.984375 -13.140625 C 2.984375 -15.734375 3.539062 -18.039062 4.65625 -20.0625 C 5.78125 -22.082031 7.351562 -23.660156 9.375 -24.796875 C 11.394531 -25.941406 13.691406 -26.515625 16.265625 -26.515625 C 18.796875 -26.515625 21.0625 -25.941406 23.0625 -24.796875 C 25.070312 -23.660156 26.644531 -22.082031 27.78125 -20.0625 C 28.914062 -18.039062 29.484375 -15.734375 29.484375 -13.140625 C 29.484375 -10.566406 28.921875 -8.269531 27.796875 -6.25 C 26.679688 -4.226562 25.117188 -2.648438 23.109375 -1.515625 C 21.109375 -0.378906 18.828125 0.1875 16.265625 0.1875 Z M 16.265625 -4.140625 C 17.898438 -4.140625 19.363281 -4.523438 20.65625 -5.296875 C 21.957031 -6.066406 22.96875 -7.128906 23.6875 -8.484375 C 24.414062 -9.847656 24.78125 -11.398438 24.78125 -13.140625 C 24.78125 -14.867188 24.414062 -16.421875 23.6875 -17.796875 C 22.96875 -19.179688 21.957031 -20.253906 20.65625 -21.015625 C 19.363281 -21.785156 17.898438 -22.171875 16.265625 -22.171875 C 14.628906 -22.171875 13.160156 -21.785156 11.859375 -21.015625 C 10.554688 -20.253906 9.535156 -19.179688 8.796875 -17.796875 C 8.066406 -16.421875 7.703125 -14.867188 7.703125 -13.140625 C 7.703125 -11.398438 8.066406 -9.847656 8.796875 -8.484375 C 9.535156 -7.128906 10.554688 -6.066406 11.859375 -5.296875 C 13.160156 -4.523438 14.628906 -4.140625 16.265625 -4.140625 Z M 16.265625 -4.140625 "/></g></g></g><g fill="#ffffff" fill-opacity="1"><g transform="translate(142.968762, 316.588784)"><g><path d="M 17.421875 -26.5625 C 19.628906 -26.5625 21.613281 -26.078125 23.375 -25.109375 C 25.144531 -24.148438 26.523438 -22.75 27.515625 -20.90625 C 28.515625 -19.0625 29.015625 -16.835938 29.015625 -14.234375 L 29.015625 -2.40625 C 29.015625 -1.695312 28.78125 -1.109375 28.3125 -0.640625 C 27.84375 -0.179688 27.257812 0.046875 26.5625 0.046875 C 25.851562 0.046875 25.265625 -0.179688 24.796875 -0.640625 C 24.335938 -1.109375 24.109375 -1.695312 24.109375 -2.40625 L 24.109375 -14.234375 C 24.109375 -16.835938 23.410156 -18.800781 22.015625 -20.125 C 20.617188 -21.457031 18.765625 -22.125 16.453125 -22.125 C 15.109375 -22.125 13.878906 -21.851562 12.765625 -21.3125 C 11.660156 -20.769531 10.796875 -20.03125 10.171875 -19.09375 C 9.546875 -18.164062 9.234375 -17.125 9.234375 -15.96875 L 9.234375 -2.40625 C 9.234375 -1.695312 9.007812 -1.109375 8.5625 -0.640625 C 8.113281 -0.179688 7.519531 0.046875 6.78125 0.046875 C 6.070312 0.046875 5.484375 -0.179688 5.015625 -0.640625 C 4.554688 -1.109375 4.328125 -1.695312 4.328125 -2.40625 L 4.328125 -23.859375 C 4.328125 -24.597656 4.554688 -25.191406 5.015625 -25.640625 C 5.484375 -26.085938 6.070312 -26.3125 6.78125 -26.3125 C 7.519531 -26.3125 8.113281 -26.085938 8.5625 -25.640625 C 9.007812 -25.191406 9.234375 -24.597656 9.234375 -23.859375 L 9.234375 -23.328125 C 10.265625 -24.359375 11.484375 -25.15625 12.890625 -25.71875 C 14.304688 -26.28125 15.816406 -26.5625 17.421875 -26.5625 Z M 17.421875 -26.5625 "/></g></g></g><g fill="#ffffff" fill-opacity="1"><g transform="translate(175.780656, 316.588784)"><g><path d="M 15.546875 -4.8125 C 16.117188 -4.8125 16.601562 -4.585938 17 -4.140625 C 17.40625 -3.691406 17.609375 -3.113281 17.609375 -2.40625 C 17.609375 -1.695312 17.34375 -1.117188 16.8125 -0.671875 C 16.28125 -0.222656 15.597656 0 14.765625 0 L 13.90625 0 C 12.332031 0 10.894531 -0.40625 9.59375 -1.21875 C 8.300781 -2.039062 7.285156 -3.15625 6.546875 -4.5625 C 5.804688 -5.976562 5.4375 -7.566406 5.4375 -9.328125 L 5.4375 -21.21875 L 3.21875 -21.21875 C 2.550781 -21.21875 2.007812 -21.410156 1.59375 -21.796875 C 1.175781 -22.179688 0.96875 -22.660156 0.96875 -23.234375 C 0.96875 -23.878906 1.175781 -24.394531 1.59375 -24.78125 C 2.007812 -25.164062 2.550781 -25.359375 3.21875 -25.359375 L 5.4375 -25.359375 L 5.4375 -32.28125 C 5.4375 -32.988281 5.660156 -33.566406 6.109375 -34.015625 C 6.554688 -34.460938 7.132812 -34.6875 7.84375 -34.6875 C 8.550781 -34.6875 9.128906 -34.460938 9.578125 -34.015625 C 10.023438 -33.566406 10.25 -32.988281 10.25 -32.28125 L 10.25 -25.359375 L 14.34375 -25.359375 C 15.007812 -25.359375 15.550781 -25.164062 15.96875 -24.78125 C 16.382812 -24.394531 16.59375 -23.878906 16.59375 -23.234375 C 16.59375 -22.660156 16.382812 -22.179688 15.96875 -21.796875 C 15.550781 -21.410156 15.007812 -21.21875 14.34375 -21.21875 L 10.25 -21.21875 L 10.25 -9.328125 C 10.25 -8.046875 10.597656 -6.972656 11.296875 -6.109375 C 12.003906 -5.242188 12.875 -4.8125 13.90625 -4.8125 Z M 15.546875 -4.8125 "/></g></g></g><g fill="#ffffff" fill-opacity="1"><g transform="translate(195.073284, 316.588784)"><g><path d="M 16.265625 -26.515625 C 18.734375 -26.515625 20.96875 -25.925781 22.96875 -24.75 C 24.976562 -23.582031 26.566406 -21.976562 27.734375 -19.9375 C 28.898438 -17.90625 29.484375 -15.640625 29.484375 -13.140625 L 29.484375 -2.40625 C 29.484375 -1.695312 29.25 -1.109375 28.78125 -0.640625 C 28.320312 -0.179688 27.738281 0.046875 27.03125 0.046875 C 26.332031 0.046875 25.75 -0.179688 25.28125 -0.640625 C 24.8125 -1.109375 24.578125 -1.695312 24.578125 -2.40625 L 24.578125 -4.1875 C 23.460938 -2.800781 22.101562 -1.722656 20.5 -0.953125 C 18.894531 -0.191406 17.160156 0.1875 15.296875 0.1875 C 12.984375 0.1875 10.890625 -0.382812 9.015625 -1.53125 C 7.140625 -2.6875 5.664062 -4.28125 4.59375 -6.3125 C 3.519531 -8.351562 2.984375 -10.628906 2.984375 -13.140625 C 2.984375 -15.640625 3.5625 -17.90625 4.71875 -19.9375 C 5.875 -21.976562 7.46875 -23.582031 9.5 -24.75 C 11.539062 -25.925781 13.796875 -26.515625 16.265625 -26.515625 Z M 16.265625 -4.140625 C 17.867188 -4.140625 19.316406 -4.53125 20.609375 -5.3125 C 21.910156 -6.101562 22.929688 -7.175781 23.671875 -8.53125 C 24.410156 -9.894531 24.78125 -11.429688 24.78125 -13.140625 C 24.78125 -14.835938 24.410156 -16.375 23.671875 -17.75 C 22.929688 -19.132812 21.910156 -20.21875 20.609375 -21 C 19.316406 -21.78125 17.867188 -22.171875 16.265625 -22.171875 C 14.660156 -22.171875 13.207031 -21.78125 11.90625 -21 C 10.601562 -20.21875 9.578125 -19.132812 8.828125 -17.75 C 8.078125 -16.375 7.703125 -14.835938 7.703125 -13.140625 C 7.703125 -11.429688 8.078125 -9.894531 8.828125 -8.53125 C 9.578125 -7.175781 10.601562 -6.101562 11.90625 -5.3125 C 13.207031 -4.53125 14.660156 -4.140625 16.265625 -4.140625 Z M 16.265625 -4.140625 "/></g></g></g><g fill="#ffffff" fill-opacity="1"><g transform="translate(227.548394, 316.588784)"><g><path d="M 16.265625 0.1875 C 13.722656 0.1875 11.441406 -0.382812 9.421875 -1.53125 C 7.410156 -2.6875 5.832031 -4.28125 4.6875 -6.3125 C 3.550781 -8.351562 2.984375 -10.628906 2.984375 -13.140625 C 2.984375 -15.703125 3.535156 -18 4.640625 -20.03125 C 5.742188 -22.070312 7.289062 -23.660156 9.28125 -24.796875 C 11.269531 -25.941406 13.515625 -26.515625 16.015625 -26.515625 C 19.804688 -26.515625 22.953125 -25.066406 25.453125 -22.171875 C 25.773438 -21.828125 25.9375 -21.410156 25.9375 -20.921875 C 25.9375 -20.222656 25.582031 -19.628906 24.875 -19.140625 C 24.550781 -18.921875 24.179688 -18.8125 23.765625 -18.8125 C 23.023438 -18.8125 22.398438 -19.097656 21.890625 -19.671875 C 21.085938 -20.535156 20.210938 -21.164062 19.265625 -21.5625 C 18.316406 -21.96875 17.234375 -22.171875 16.015625 -22.171875 C 13.546875 -22.171875 11.539062 -21.34375 10 -19.6875 C 8.46875 -18.039062 7.703125 -15.859375 7.703125 -13.140625 C 7.703125 -11.398438 8.0625 -9.847656 8.78125 -8.484375 C 9.5 -7.128906 10.507812 -6.066406 11.8125 -5.296875 C 13.113281 -4.523438 14.597656 -4.140625 16.265625 -4.140625 C 18.441406 -4.140625 20.203125 -4.703125 21.546875 -5.828125 C 22.160156 -6.273438 22.753906 -6.5 23.328125 -6.5 C 23.773438 -6.5 24.191406 -6.351562 24.578125 -6.0625 C 25.191406 -5.550781 25.5 -4.972656 25.5 -4.328125 C 25.5 -3.847656 25.304688 -3.414062 24.921875 -3.03125 C 22.609375 -0.882812 19.722656 0.1875 16.265625 0.1875 Z M 16.265625 0.1875 "/></g></g></g><g fill="#ffffff" fill-opacity="1"><g transform="translate(256.463272, 316.588784)"><g><path d="M 15.546875 -4.8125 C 16.117188 -4.8125 16.601562 -4.585938 17 -4.140625 C 17.40625 -3.691406 17.609375 -3.113281 17.609375 -2.40625 C 17.609375 -1.695312 17.34375 -1.117188 16.8125 -0.671875 C 16.28125 -0.222656 15.597656 0 14.765625 0 L 13.90625 0 C 12.332031 0 10.894531 -0.40625 9.59375 -1.21875 C 8.300781 -2.039062 7.285156 -3.15625 6.546875 -4.5625 C 5.804688 -5.976562 5.4375 -7.566406 5.4375 -9.328125 L 5.4375 -21.21875 L 3.21875 -21.21875 C 2.550781 -21.21875 2.007812 -21.410156 1.59375 -21.796875 C 1.175781 -22.179688 0.96875 -22.660156 0.96875 -23.234375 C 0.96875 -23.878906 1.175781 -24.394531 1.59375 -24.78125 C 2.007812 -25.164062 2.550781 -25.359375 3.21875 -25.359375 L 5.4375 -25.359375 L 5.4375 -32.28125 C 5.4375 -32.988281 5.660156 -33.566406 6.109375 -34.015625 C 6.554688 -34.460938 7.132812 -34.6875 7.84375 -34.6875 C 8.550781 -34.6875 9.128906 -34.460938 9.578125 -34.015625 C 10.023438 -33.566406 10.25 -32.988281 10.25 -32.28125 L 10.25 -25.359375 L 14.34375 -25.359375 C 15.007812 -25.359375 15.550781 -25.164062 15.96875 -24.78125 C 16.382812 -24.394531 16.59375 -23.878906 16.59375 -23.234375 C 16.59375 -22.660156 16.382812 -22.179688 15.96875 -21.796875 C 15.550781 -21.410156 15.007812 -21.21875 14.34375 -21.21875 L 10.25 -21.21875 L 10.25 -9.328125 C 10.25 -8.046875 10.597656 -6.972656 11.296875 -6.109375 C 12.003906 -5.242188 12.875 -4.8125 13.90625 -4.8125 Z M 15.546875 -4.8125 "/></g></g></g><g fill="#ffffff" fill-opacity="1"><g transform="translate(275.7559, 316.588784)"><g><path d="M 13.90625 0.1875 C 11.71875 0.1875 9.660156 -0.144531 7.734375 -0.8125 C 5.816406 -1.488281 4.3125 -2.375 3.21875 -3.46875 C 2.800781 -3.882812 2.59375 -4.378906 2.59375 -4.953125 C 2.59375 -5.722656 2.914062 -6.347656 3.5625 -6.828125 C 4.164062 -7.273438 4.726562 -7.5 5.25 -7.5 C 5.882812 -7.5 6.492188 -7.210938 7.078125 -6.640625 C 7.679688 -5.960938 8.59375 -5.375 9.8125 -4.875 C 11.03125 -4.382812 12.332031 -4.140625 13.71875 -4.140625 C 15.539062 -4.140625 16.957031 -4.441406 17.96875 -5.046875 C 18.976562 -5.660156 19.484375 -6.476562 19.484375 -7.5 C 19.484375 -8.5 18.984375 -9.328125 17.984375 -9.984375 C 16.992188 -10.640625 15.3125 -11.191406 12.9375 -11.640625 C 6.78125 -12.828125 3.703125 -15.363281 3.703125 -19.25 C 3.703125 -20.8125 4.164062 -22.140625 5.09375 -23.234375 C 6.03125 -24.328125 7.25 -25.144531 8.75 -25.6875 C 10.257812 -26.238281 11.863281 -26.515625 13.5625 -26.515625 C 15.644531 -26.515625 17.515625 -26.175781 19.171875 -25.5 C 20.828125 -24.820312 22.132812 -23.890625 23.09375 -22.703125 C 23.507812 -22.191406 23.71875 -21.679688 23.71875 -21.171875 C 23.71875 -20.617188 23.445312 -20.117188 22.90625 -19.671875 C 22.550781 -19.421875 22.097656 -19.296875 21.546875 -19.296875 C 20.710938 -19.296875 19.960938 -19.597656 19.296875 -20.203125 C 18.492188 -20.941406 17.640625 -21.460938 16.734375 -21.765625 C 15.835938 -22.066406 14.75 -22.21875 13.46875 -22.21875 C 11.988281 -22.21875 10.773438 -21.96875 9.828125 -21.46875 C 8.890625 -20.976562 8.421875 -20.285156 8.421875 -19.390625 C 8.421875 -18.742188 8.578125 -18.203125 8.890625 -17.765625 C 9.210938 -17.335938 9.820312 -16.9375 10.71875 -16.5625 C 11.625 -16.195312 12.925781 -15.835938 14.625 -15.484375 C 18.125 -14.785156 20.601562 -13.8125 22.0625 -12.5625 C 23.519531 -11.3125 24.25 -9.691406 24.25 -7.703125 C 24.25 -6.222656 23.847656 -4.878906 23.046875 -3.671875 C 22.242188 -2.472656 21.0625 -1.53125 19.5 -0.84375 C 17.945312 -0.15625 16.082031 0.1875 13.90625 0.1875 Z M 13.90625 0.1875 "/></g></g></g><g fill="#ffffff" fill-opacity="1"><g transform="translate(126.626388, 344.788086)"><g><path d="M 6.53125 0 L 2.703125 -9.984375 L 2.640625 -9.984375 C 2.710938 -9.191406 2.75 -8.25 2.75 -7.15625 L 2.75 0 L 1.546875 0 L 1.546875 -11.25 L 3.515625 -11.25 L 7.078125 -1.96875 L 7.140625 -1.96875 L 10.734375 -11.25 L 12.6875 -11.25 L 12.6875 0 L 11.390625 0 L 11.390625 -7.25 C 11.390625 -8.082031 11.425781 -8.988281 11.5 -9.96875 L 11.4375 -9.96875 L 7.578125 0 Z M 6.53125 0 "/></g></g></g><g fill="#ffffff" fill-opacity="1"><g transform="translate(148.472667, 344.788086)"><g><path d="M 8.625 0 L 7.21875 -3.578125 L 2.703125 -3.578125 L 1.328125 0 L 0 0 L 4.453125 -11.296875 L 5.546875 -11.296875 L 9.984375 0 Z M 6.8125 -4.75 L 5.5 -8.25 C 5.332031 -8.6875 5.160156 -9.226562 4.984375 -9.875 C 4.867188 -9.375 4.707031 -8.832031 4.5 -8.25 L 3.171875 -4.75 Z M 6.8125 -4.75 "/></g></g></g><g fill="#ffffff" fill-opacity="1"><g transform="translate(166.062354, 344.788086)"><g><path d="M 10.34375 0 L 8.84375 0 L 2.6875 -9.453125 L 2.625 -9.453125 C 2.707031 -8.335938 2.75 -7.316406 2.75 -6.390625 L 2.75 0 L 1.546875 0 L 1.546875 -11.25 L 3.03125 -11.25 L 9.15625 -1.84375 L 9.21875 -1.84375 C 9.207031 -1.988281 9.179688 -2.4375 9.140625 -3.1875 C 9.109375 -3.9375 9.097656 -4.472656 9.109375 -4.796875 L 9.109375 -11.25 L 10.34375 -11.25 Z M 10.34375 0 "/></g></g></g><g fill="#ffffff" fill-opacity="1"><g transform="translate(185.560962, 344.788086)"><g><path d="M 8.625 0 L 7.21875 -3.578125 L 2.703125 -3.578125 L 1.328125 0 L 0 0 L 4.453125 -11.296875 L 5.546875 -11.296875 L 9.984375 0 Z M 6.8125 -4.75 L 5.5 -8.25 C 5.332031 -8.6875 5.160156 -9.226562 4.984375 -9.875 C 4.867188 -9.375 4.707031 -8.832031 4.5 -8.25 L 3.171875 -4.75 Z M 6.8125 -4.75 "/></g></g></g><g fill="#ffffff" fill-opacity="1"><g transform="translate(203.150652, 344.788086)"><g><path d="M 6.5 -5.890625 L 10.328125 -5.890625 L 10.328125 -0.421875 C 9.734375 -0.234375 9.125 -0.09375 8.5 0 C 7.882812 0.101562 7.171875 0.15625 6.359375 0.15625 C 4.660156 0.15625 3.335938 -0.347656 2.390625 -1.359375 C 1.441406 -2.378906 0.96875 -3.800781 0.96875 -5.625 C 0.96875 -6.789062 1.203125 -7.8125 1.671875 -8.6875 C 2.140625 -9.570312 2.8125 -10.25 3.6875 -10.71875 C 4.570312 -11.1875 5.609375 -11.421875 6.796875 -11.421875 C 7.992188 -11.421875 9.113281 -11.195312 10.15625 -10.75 L 9.640625 -9.59375 C 8.628906 -10.03125 7.65625 -10.25 6.71875 -10.25 C 5.34375 -10.25 4.269531 -9.835938 3.5 -9.015625 C 2.726562 -8.203125 2.34375 -7.070312 2.34375 -5.625 C 2.34375 -4.101562 2.710938 -2.953125 3.453125 -2.171875 C 4.203125 -1.390625 5.296875 -1 6.734375 -1 C 7.503906 -1 8.265625 -1.085938 9.015625 -1.265625 L 9.015625 -4.734375 L 6.5 -4.734375 Z M 6.5 -5.890625 "/></g></g></g><g fill="#ffffff" fill-opacity="1"><g transform="translate(222.241311, 344.788086)"><g><path d="M 7.828125 0 L 1.546875 0 L 1.546875 -11.25 L 7.828125 -11.25 L 7.828125 -10.09375 L 2.859375 -10.09375 L 2.859375 -6.46875 L 7.515625 -6.46875 L 7.515625 -5.3125 L 2.859375 -5.3125 L 2.859375 -1.171875 L 7.828125 -1.171875 Z M 7.828125 0 "/></g></g></g><g fill="#ffffff" fill-opacity="1"><g transform="translate(238.622529, 344.788086)"><g><path d="M 2.859375 -4.6875 L 2.859375 0 L 1.546875 0 L 1.546875 -11.25 L 4.640625 -11.25 C 6.015625 -11.25 7.03125 -10.984375 7.6875 -10.453125 C 8.351562 -9.929688 8.6875 -9.140625 8.6875 -8.078125 C 8.6875 -6.585938 7.929688 -5.582031 6.421875 -5.0625 L 9.46875 0 L 7.921875 0 L 5.203125 -4.6875 Z M 2.859375 -5.796875 L 4.65625 -5.796875 C 5.570312 -5.796875 6.242188 -5.976562 6.671875 -6.34375 C 7.109375 -6.71875 7.328125 -7.269531 7.328125 -8 C 7.328125 -8.75 7.109375 -9.285156 6.671875 -9.609375 C 6.234375 -9.941406 5.53125 -10.109375 4.5625 -10.109375 L 2.859375 -10.109375 Z M 2.859375 -5.796875 "/></g></g></g></svg>