<svg xmlns="http://www.w3.org/2000/svg" xmlns:xlink="http://www.w3.org/1999/xlink" width="500" zoomAndPan="magnify" viewBox="0 0 375 374.999991" height="500" preserveAspectRatio="xMidYMid meet" version="1.0"><defs><g/></defs><path fill="#ffffff" d="M 332.519531 247.261719 C 341.632812 231.511719 336.222656 211.371094 320.445312 202.28125 C 304.660156 193.1875 284.480469 198.585938 275.367188 214.335938 C 273.558594 217.457031 272.332031 220.75 271.632812 224.101562 L 228.429688 224.101562 C 226.984375 217.234375 223.359375 210.855469 217.847656 206.0625 L 239.429688 168.757812 C 254.058594 173.757812 270.648438 167.921875 278.667969 154.058594 C 287.777344 138.308594 282.375 118.171875 266.585938 109.078125 C 257.660156 103.9375 247.332031 103.433594 238.386719 106.8125 L 217.058594 69.949219 C 220.097656 67.488281 222.742188 64.441406 224.816406 60.859375 C 233.929688 45.109375 228.523438 24.972656 212.742188 15.882812 C 196.957031 6.789062 176.777344 12.183594 167.664062 27.929688 C 158.554688 43.679688 163.960938 63.820312 179.746094 72.910156 C 187.953125 77.640625 197.359375 78.449219 205.777344 75.914062 L 227.546875 113.546875 C 225.230469 115.710938 223.1875 118.246094 221.519531 121.132812 C 219.597656 124.453125 218.324219 127.972656 217.652344 131.539062 L 174.703125 131.539062 C 172.976562 122.449219 167.441406 114.132812 158.78125 109.140625 C 142.996094 100.050781 122.820312 105.449219 113.707031 121.195312 C 105.691406 135.054688 108.914062 152.316406 120.566406 162.453125 L 98.988281 199.757812 C 84.363281 194.753906 67.773438 200.59375 59.75 214.457031 C 50.644531 230.203125 56.042969 250.34375 71.828125 259.433594 C 87.609375 268.527344 107.789062 263.128906 116.902344 247.382812 C 124.917969 233.519531 121.691406 216.261719 110.039062 206.121094 L 131.621094 168.820312 C 138.730469 171.253906 146.3125 171.121094 153.140625 168.746094 L 174.621094 205.878906 C 171.871094 208.234375 169.472656 211.085938 167.558594 214.394531 C 158.449219 230.144531 163.855469 250.28125 179.636719 259.375 C 195.417969 268.464844 215.597656 263.066406 224.707031 247.320312 C 226.644531 243.972656 227.925781 240.429688 228.585938 236.832031 L 271.511719 236.832031 C 273.222656 245.953125 278.757812 254.300781 287.445312 259.308594 C 303.226562 268.402344 323.40625 263.007812 332.519531 247.261719 Z M 217.785156 144.273438 C 219.21875 151.167969 222.847656 157.578125 228.378906 162.390625 L 206.796875 199.695312 C 199.847656 197.316406 192.445312 197.390625 185.730469 199.613281 L 164.15625 162.320312 C 166.75 160.023438 169.027344 157.28125 170.859375 154.121094 C 172.683594 150.972656 173.921875 147.644531 174.613281 144.273438 Z M 217.785156 144.273438 " fill-opacity="1" fill-rule="nonzero"/><g fill="#ffffff" fill-opacity="1"><g transform="translate(6.827175, 322.079064)"><g><path d="M 12.417969 0.511719 C 18.460938 0.511719 21.980469 -2.828125 22.582031 -7.789062 L 16.6875 -7.789062 C 16.328125 -5.382812 14.582031 -4.300781 12.296875 -4.300781 C 8.660156 -4.300781 6.644531 -7.125 6.644531 -11.484375 C 6.644531 -15.816406 8.660156 -18.613281 12.296875 -18.613281 C 14.582031 -18.613281 16.355469 -17.53125 16.6875 -15.183594 L 22.582031 -15.183594 C 21.980469 -20.117188 18.460938 -23.421875 12.417969 -23.421875 C 4.570312 -23.421875 0.960938 -17.890625 0.960938 -11.484375 C 0.960938 -5.082031 4.570312 0.511719 12.417969 0.511719 Z M 12.417969 0.511719 "/></g></g></g><g fill="#ffffff" fill-opacity="1"><g transform="translate(31.752647, 322.079064)"><g><path d="M 12.417969 0.511719 C 20.207031 0.511719 23.84375 -5.082031 23.84375 -11.484375 C 23.84375 -17.890625 20.207031 -23.421875 12.417969 -23.421875 C 4.570312 -23.421875 0.960938 -17.890625 0.960938 -11.484375 C 0.960938 -5.082031 4.570312 0.511719 12.417969 0.511719 Z M 12.417969 -4.300781 C 8.808594 -4.300781 6.644531 -7.125 6.644531 -11.484375 C 6.644531 -15.816406 8.808594 -18.613281 12.417969 -18.613281 C 16.027344 -18.613281 18.160156 -15.816406 18.160156 -11.484375 C 18.160156 -7.125 16.027344 -4.300781 12.417969 -4.300781 Z M 12.417969 -4.300781 "/></g></g></g><g fill="#ffffff" fill-opacity="1"><g transform="translate(58.091251, 322.079064)"><g><path d="M 7.1875 0 L 7.1875 -14.011719 L 15.996094 0 L 21.46875 0 L 21.46875 -22.941406 L 16.085938 -22.941406 L 16.085938 -9.019531 L 7.277344 -22.941406 L 1.804688 -22.941406 L 1.804688 0 Z M 7.1875 0 "/></g></g></g><g fill="#ffffff" fill-opacity="1"><g transform="translate(82.866384, 322.079064)"><g><path d="M 12.085938 0 L 12.085938 -18.132812 L 18.550781 -18.132812 L 18.550781 -22.941406 L 0.242188 -22.941406 L 0.242188 -18.132812 L 6.707031 -18.132812 L 6.707031 0 Z M 12.085938 0 "/></g></g></g><g fill="#ffffff" fill-opacity="1"><g transform="translate(103.161592, 322.079064)"><g><path d="M 5.773438 0 L 7.007812 -4.121094 L 14.644531 -4.121094 L 15.875 0 L 21.589844 0 L 13.742188 -22.941406 L 7.90625 -22.941406 L 0.0585938 0 Z M 10.824219 -16.957031 L 13.230469 -8.78125 L 8.417969 -8.78125 Z M 10.824219 -16.957031 "/></g></g></g><g fill="#ffffff" fill-opacity="1"><g transform="translate(126.313137, 322.079064)"><g><path d="M 12.417969 0.511719 C 18.460938 0.511719 21.980469 -2.828125 22.582031 -7.789062 L 16.6875 -7.789062 C 16.328125 -5.382812 14.582031 -4.300781 12.296875 -4.300781 C 8.660156 -4.300781 6.644531 -7.125 6.644531 -11.484375 C 6.644531 -15.816406 8.660156 -18.613281 12.296875 -18.613281 C 14.582031 -18.613281 16.355469 -17.53125 16.6875 -15.183594 L 22.582031 -15.183594 C 21.980469 -20.117188 18.460938 -23.421875 12.417969 -23.421875 C 4.570312 -23.421875 0.960938 -17.890625 0.960938 -11.484375 C 0.960938 -5.082031 4.570312 0.511719 12.417969 0.511719 Z M 12.417969 0.511719 "/></g></g></g><g fill="#ffffff" fill-opacity="1"><g transform="translate(151.238613, 322.079064)"><g><path d="M 12.085938 0 L 12.085938 -18.132812 L 18.550781 -18.132812 L 18.550781 -22.941406 L 0.242188 -22.941406 L 0.242188 -18.132812 L 6.707031 -18.132812 L 6.707031 0 Z M 12.085938 0 "/></g></g></g><g fill="#ffffff" fill-opacity="1"><g transform="translate(171.533821, 322.079064)"><g><path d="M 11.457031 0.511719 C 17.019531 0.511719 20.417969 -2.316406 20.417969 -6.824219 C 20.417969 -12.148438 15.605469 -13.230469 11.726562 -14.101562 C 9.109375 -14.703125 6.886719 -15.214844 6.886719 -16.867188 C 6.886719 -18.3125 8.390625 -18.914062 9.921875 -18.914062 C 12.175781 -18.914062 13.742188 -17.738281 14.28125 -15.785156 L 19.84375 -15.785156 C 19.125 -20.898438 14.855469 -23.421875 10.042969 -23.421875 C 5.351562 -23.421875 1.535156 -21.167969 1.535156 -16.417969 C 1.535156 -11.367188 6.132812 -10.34375 9.984375 -9.472656 C 12.6875 -8.871094 15.003906 -8.359375 15.003906 -6.554688 C 15.003906 -4.75 13.261719 -4 11.425781 -4 C 9.351562 -4 7.277344 -4.78125 6.496094 -7.789062 L 0.933594 -7.789062 C 1.351562 -1.351562 7.125 0.511719 11.457031 0.511719 Z M 11.457031 0.511719 "/></g></g></g><g fill="#ffffff" fill-opacity="1"><g transform="translate(202.676257, 322.079064)"><g><path d="M 4.449219 0 L 4.449219 -20.808594 L 11.875 0 L 14.460938 0 L 21.890625 -20.746094 L 21.890625 0 L 23.964844 0 L 23.964844 -22.941406 L 20.625 -22.941406 L 13.167969 -2.105469 L 5.714844 -22.941406 L 2.375 -22.941406 L 2.375 0 Z M 4.449219 0 "/></g></g></g><g fill="#ffffff" fill-opacity="1"><g transform="translate(231.119606, 322.079064)"><g><path d="M 2.617188 0 L 4.929688 -6.195312 L 15.753906 -6.195312 L 18.070312 0 L 20.207031 0 L 11.546875 -22.941406 L 9.140625 -22.941406 L 0.480469 0 Z M 10.34375 -20.808594 L 15.09375 -8.058594 L 5.59375 -8.058594 Z M 10.34375 -20.808594 "/></g></g></g><g fill="#ffffff" fill-opacity="1"><g transform="translate(253.910431, 322.079064)"><g><path d="M 4.449219 0 L 4.449219 -20.957031 L 15.574219 0 L 18.761719 0 L 18.761719 -22.941406 L 16.71875 -22.941406 L 16.71875 -1.894531 L 5.5625 -22.941406 L 2.375 -22.941406 L 2.375 0 Z M 4.449219 0 "/></g></g></g><g fill="#ffffff" fill-opacity="1"><g transform="translate(277.182318, 322.079064)"><g><path d="M 2.617188 0 L 4.929688 -6.195312 L 15.753906 -6.195312 L 18.070312 0 L 20.207031 0 L 11.546875 -22.941406 L 9.140625 -22.941406 L 0.480469 0 Z M 10.34375 -20.808594 L 15.09375 -8.058594 L 5.59375 -8.058594 Z M 10.34375 -20.808594 "/></g></g></g><g fill="#ffffff" fill-opacity="1"><g transform="translate(299.973139, 322.079064)"><g><path d="M 12.058594 0.300781 C 15.335938 0.300781 18.640625 -1.023438 19.726562 -4.238281 L 19.726562 0 L 21.648438 0 L 21.648438 -11.785156 L 13.953125 -11.785156 L 13.953125 -9.921875 L 19.574219 -9.921875 C 19.574219 -4.992188 16.746094 -1.5625 12.027344 -1.5625 C 6.34375 -1.5625 3.578125 -6.164062 3.578125 -11.515625 C 3.578125 -16.65625 6.132812 -21.378906 11.996094 -21.378906 C 15.785156 -21.378906 18.191406 -19.574219 18.972656 -16.898438 L 21.289062 -16.898438 C 20.296875 -20.566406 17.140625 -23.242188 12.027344 -23.242188 C 4.78125 -23.242188 1.503906 -17.558594 1.503906 -11.457031 C 1.503906 -5.382812 4.78125 0.300781 12.058594 0.300781 Z M 12.058594 0.300781 "/></g></g></g><g fill="#ffffff" fill-opacity="1"><g transform="translate(325.620285, 322.079064)"><g><path d="M 16.988281 0 L 16.988281 -1.863281 L 4.449219 -1.863281 L 4.449219 -10.582031 L 15.453125 -10.582031 L 15.453125 -12.449219 L 4.449219 -12.449219 L 4.449219 -21.078125 L 16.988281 -21.078125 L 16.988281 -22.941406 L 2.375 -22.941406 L 2.375 0 Z M 16.988281 0 "/></g></g></g><g fill="#ffffff" fill-opacity="1"><g transform="translate(346.035829, 322.079064)"><g><path d="M 13.230469 -10.375 C 15.964844 -11.214844 17.589844 -13.351562 17.589844 -16.476562 C 17.589844 -20.746094 14.734375 -22.941406 10.3125 -22.941406 L 2.375 -22.941406 L 2.375 0 L 4.449219 0 L 4.449219 -9.984375 L 10.3125 -9.984375 C 10.613281 -9.984375 10.914062 -9.984375 11.183594 -10.011719 L 15.515625 0 L 17.800781 0 Z M 4.449219 -11.785156 L 4.449219 -21.078125 L 10.042969 -21.078125 C 13.53125 -21.078125 15.546875 -19.363281 15.546875 -16.417969 C 15.546875 -13.441406 13.589844 -11.785156 10.042969 -11.785156 Z M 4.449219 -11.785156 "/></g></g></g></svg>